<mxfile host="app.diagrams.net" modified="2021-11-28T12:13:51.134Z" agent="5.0 (Windows NT 10.0; Win64; x64) AppleWebKit/537.36 (KHTML, like Gecko) Chrome/96.0.4664.45 Safari/537.36" etag="aS6IUucz4n8emSvUPTC5" version="15.8.6" type="github">
  <diagram id="1I3czHAHe6RpvJC3yKMb" name="Page-1">
    <mxGraphModel dx="782" dy="428" grid="1" gridSize="10" guides="1" tooltips="1" connect="1" arrows="1" fold="1" page="1" pageScale="1" pageWidth="827" pageHeight="1169" math="0" shadow="0">
      <root>
        <mxCell id="0" />
        <mxCell id="1" parent="0" />
        <mxCell id="iQXzC3IMoVuFOPlRli_T-2" value="" style="whiteSpace=wrap;html=1;aspect=fixed;align=center;" parent="1" vertex="1">
          <mxGeometry x="214" y="87" width="440" height="440" as="geometry" />
        </mxCell>
        <mxCell id="iQXzC3IMoVuFOPlRli_T-8" style="edgeStyle=orthogonalEdgeStyle;rounded=0;orthogonalLoop=1;jettySize=auto;html=1;exitX=0.5;exitY=0.5;exitDx=0;exitDy=0;exitPerimeter=0;" parent="1" source="iQXzC3IMoVuFOPlRli_T-4" target="iQXzC3IMoVuFOPlRli_T-7" edge="1">
          <mxGeometry relative="1" as="geometry">
            <Array as="points">
              <mxPoint x="200" y="200" />
              <mxPoint x="200" y="160" />
            </Array>
          </mxGeometry>
        </mxCell>
        <mxCell id="iQXzC3IMoVuFOPlRli_T-4" value="Business" style="shape=umlActor;verticalLabelPosition=bottom;verticalAlign=top;html=1;" parent="1" vertex="1">
          <mxGeometry x="123" y="180" width="20" height="40" as="geometry" />
        </mxCell>
        <mxCell id="iQXzC3IMoVuFOPlRli_T-7" value="Request" style="ellipse;whiteSpace=wrap;html=1;fillColor=#dae8fc;strokeColor=#6c8ebf;" parent="1" vertex="1">
          <mxGeometry x="329" y="140" width="90" height="40" as="geometry" />
        </mxCell>
        <mxCell id="iQXzC3IMoVuFOPlRli_T-9" value="&lt;font style=&quot;font-size: 7px&quot;&gt;Emp Req Record&lt;/font&gt;" style="ellipse;whiteSpace=wrap;html=1;fillColor=#dae8fc;strokeColor=#6c8ebf;" parent="1" vertex="1">
          <mxGeometry x="520" y="170" width="70" height="30" as="geometry" />
        </mxCell>
        <mxCell id="iQXzC3IMoVuFOPlRli_T-14" value="&lt;font style=&quot;font-size: 10px&quot;&gt;Employer Master&lt;/font&gt;" style="ellipse;whiteSpace=wrap;html=1;fillColor=#dae8fc;strokeColor=#6c8ebf;" parent="1" vertex="1">
          <mxGeometry x="324" y="200" width="99" height="42.43" as="geometry" />
        </mxCell>
        <mxCell id="iQXzC3IMoVuFOPlRli_T-15" value="&lt;font style=&quot;font-size: 10px&quot;&gt;create&lt;/font&gt;" style="ellipse;whiteSpace=wrap;html=1;fillColor=#dae8fc;strokeColor=#6c8ebf;" parent="1" vertex="1">
          <mxGeometry x="440" y="150" width="70" height="30" as="geometry" />
        </mxCell>
        <mxCell id="WL6x4OXNJV538Ipcwp_X-3" value="" style="endArrow=classic;html=1;rounded=0;exitX=1;exitY=0.5;exitDx=0;exitDy=0;entryX=0;entryY=0.5;entryDx=0;entryDy=0;dashed=1;endFill=1;jumpSize=6;strokeWidth=0.5;" parent="1" source="iQXzC3IMoVuFOPlRli_T-7" target="iQXzC3IMoVuFOPlRli_T-15" edge="1">
          <mxGeometry width="50" height="50" relative="1" as="geometry">
            <mxPoint x="400" y="210" as="sourcePoint" />
            <mxPoint x="450" y="160" as="targetPoint" />
          </mxGeometry>
        </mxCell>
        <mxCell id="WL6x4OXNJV538Ipcwp_X-4" value="&lt;font style=&quot;font-size: 3px&quot;&gt;&amp;lt;&amp;lt;include&amp;gt;&amp;gt;&lt;/font&gt;" style="text;html=1;strokeColor=none;fillColor=none;align=center;verticalAlign=middle;whiteSpace=wrap;rounded=0;rotation=0;" parent="1" vertex="1">
          <mxGeometry x="417" y="166" width="20" as="geometry" />
        </mxCell>
        <mxCell id="WL6x4OXNJV538Ipcwp_X-7" value="&lt;font style=&quot;font-size: 4px&quot;&gt;&amp;lt;&amp;lt;include&amp;gt;&amp;gt;&lt;/font&gt;" style="text;html=1;strokeColor=none;fillColor=none;align=center;verticalAlign=middle;whiteSpace=wrap;rounded=0;rotation=0;" parent="1" vertex="1">
          <mxGeometry x="511" y="166" width="20" as="geometry" />
        </mxCell>
        <mxCell id="WL6x4OXNJV538Ipcwp_X-8" value="" style="endArrow=classic;html=1;rounded=0;exitX=0.965;exitY=0.664;exitDx=0;exitDy=0;entryX=0.05;entryY=0.309;entryDx=0;entryDy=0;dashed=1;endFill=1;jumpSize=6;strokeWidth=0.5;entryPerimeter=0;exitPerimeter=0;" parent="1" source="iQXzC3IMoVuFOPlRli_T-15" target="iQXzC3IMoVuFOPlRli_T-9" edge="1">
          <mxGeometry width="50" height="50" relative="1" as="geometry">
            <mxPoint x="510" y="170" as="sourcePoint" />
            <mxPoint x="531" y="175" as="targetPoint" />
          </mxGeometry>
        </mxCell>
        <mxCell id="WL6x4OXNJV538Ipcwp_X-15" value="&lt;font style=&quot;font-size: 10px&quot;&gt;Employee Master&lt;/font&gt;" style="ellipse;whiteSpace=wrap;html=1;fillColor=#dae8fc;strokeColor=#6c8ebf;" parent="1" vertex="1">
          <mxGeometry x="327" y="260" width="93.33" height="40" as="geometry" />
        </mxCell>
        <mxCell id="WL6x4OXNJV538Ipcwp_X-16" value="&lt;font style=&quot;font-size: 7px&quot;&gt;Qualified candidates&lt;/font&gt;" style="ellipse;whiteSpace=wrap;html=1;fillColor=#dae8fc;strokeColor=#6c8ebf;" parent="1" vertex="1">
          <mxGeometry x="450" y="290" width="70" height="30" as="geometry" />
        </mxCell>
        <mxCell id="WL6x4OXNJV538Ipcwp_X-17" value="" style="endArrow=classic;html=1;rounded=0;exitX=0.979;exitY=0.647;exitDx=0;exitDy=0;entryX=0.011;entryY=0.433;entryDx=0;entryDy=0;dashed=1;endFill=1;jumpSize=6;strokeWidth=0.5;entryPerimeter=0;exitPerimeter=0;" parent="1" source="WL6x4OXNJV538Ipcwp_X-15" target="WL6x4OXNJV538Ipcwp_X-16" edge="1">
          <mxGeometry width="50" height="50" relative="1" as="geometry">
            <mxPoint x="540.2512626584667" y="205.6066017178" as="sourcePoint" />
            <mxPoint x="497.5149999999999" y="225.02022" as="targetPoint" />
          </mxGeometry>
        </mxCell>
        <mxCell id="WL6x4OXNJV538Ipcwp_X-18" value="&lt;font style=&quot;font-size: 4px&quot;&gt;&amp;lt;&amp;lt;include&amp;gt;&amp;gt;&lt;/font&gt;" style="text;html=1;strokeColor=none;fillColor=none;align=center;verticalAlign=middle;whiteSpace=wrap;rounded=0;rotation=0;" parent="1" vertex="1">
          <mxGeometry x="410.5" y="292" width="20" as="geometry" />
        </mxCell>
        <mxCell id="WL6x4OXNJV538Ipcwp_X-21" value="" style="endArrow=classic;html=1;rounded=0;exitX=0.5;exitY=1;exitDx=0;exitDy=0;entryX=1;entryY=0;entryDx=0;entryDy=0;dashed=1;endFill=1;jumpSize=6;strokeWidth=0.5;" parent="1" source="iQXzC3IMoVuFOPlRli_T-9" target="WL6x4OXNJV538Ipcwp_X-16" edge="1">
          <mxGeometry width="50" height="50" relative="1" as="geometry">
            <mxPoint x="540.0025506300135" y="205.49892873539437" as="sourcePoint" />
            <mxPoint x="497.5149999999999" y="225.02022" as="targetPoint" />
            <Array as="points">
              <mxPoint x="555" y="250" />
            </Array>
          </mxGeometry>
        </mxCell>
        <mxCell id="WL6x4OXNJV538Ipcwp_X-22" value="&lt;font style=&quot;font-size: 7px&quot;&gt;&amp;lt;&amp;lt;include&amp;gt;&amp;gt;&lt;/font&gt;" style="text;html=1;strokeColor=none;fillColor=none;align=center;verticalAlign=middle;whiteSpace=wrap;rounded=0;rotation=0;" parent="1" vertex="1">
          <mxGeometry x="550" y="292" width="20" as="geometry" />
        </mxCell>
        <mxCell id="WL6x4OXNJV538Ipcwp_X-23" value="&lt;font style=&quot;font-size: 10px&quot;&gt;Emp Qualification&lt;br&gt;&amp;amp; Availability&lt;br&gt;&lt;/font&gt;" style="ellipse;whiteSpace=wrap;html=1;fillColor=#dae8fc;strokeColor=#6c8ebf;" parent="1" vertex="1">
          <mxGeometry x="322" y="330" width="102.5" height="40" as="geometry" />
        </mxCell>
        <mxCell id="WL6x4OXNJV538Ipcwp_X-24" value="" style="endArrow=classic;html=1;rounded=0;exitX=0.971;exitY=0.351;exitDx=0;exitDy=0;entryX=0;entryY=1;entryDx=0;entryDy=0;dashed=1;endFill=1;jumpSize=6;strokeWidth=0.5;exitPerimeter=0;" parent="1" source="WL6x4OXNJV538Ipcwp_X-23" target="WL6x4OXNJV538Ipcwp_X-16" edge="1">
          <mxGeometry width="50" height="50" relative="1" as="geometry">
            <mxPoint x="428.37006999999994" y="295.88" as="sourcePoint" />
            <mxPoint x="460.77" y="312.99" as="targetPoint" />
          </mxGeometry>
        </mxCell>
        <mxCell id="WL6x4OXNJV538Ipcwp_X-25" value="&lt;font style=&quot;font-size: 5px&quot;&gt;&amp;lt;&amp;lt;include&amp;gt;&amp;gt;&lt;/font&gt;" style="text;html=1;strokeColor=none;fillColor=none;align=center;verticalAlign=middle;whiteSpace=wrap;rounded=0;rotation=0;" parent="1" vertex="1">
          <mxGeometry x="448" y="335" width="40" as="geometry" />
        </mxCell>
        <mxCell id="WL6x4OXNJV538Ipcwp_X-28" value="&lt;font style=&quot;font-size: 8px&quot;&gt;Get info&lt;/font&gt;" style="ellipse;whiteSpace=wrap;html=1;fillColor=#dae8fc;strokeColor=#6c8ebf;" parent="1" vertex="1">
          <mxGeometry x="455.5" y="358" width="70" height="30" as="geometry" />
        </mxCell>
        <mxCell id="WL6x4OXNJV538Ipcwp_X-29" value="" style="endArrow=classic;html=1;rounded=0;exitX=0.707;exitY=0.93;exitDx=0;exitDy=0;entryX=0.232;entryY=0.008;entryDx=0;entryDy=0;dashed=1;endFill=1;jumpSize=6;strokeWidth=0.5;exitPerimeter=0;entryPerimeter=0;" parent="1" source="WL6x4OXNJV538Ipcwp_X-15" target="WL6x4OXNJV538Ipcwp_X-28" edge="1">
          <mxGeometry width="50" height="50" relative="1" as="geometry">
            <mxPoint x="428.37006999999994" y="295.88" as="sourcePoint" />
            <mxPoint x="460.7700000000001" y="312.98999999999995" as="targetPoint" />
          </mxGeometry>
        </mxCell>
        <mxCell id="WL6x4OXNJV538Ipcwp_X-30" value="" style="endArrow=classic;html=1;rounded=0;exitX=0.569;exitY=0.98;exitDx=0;exitDy=0;entryX=0.399;entryY=-0.067;entryDx=0;entryDy=0;dashed=1;endFill=1;jumpSize=6;strokeWidth=0.5;exitPerimeter=0;entryPerimeter=0;" parent="1" source="iQXzC3IMoVuFOPlRli_T-14" target="WL6x4OXNJV538Ipcwp_X-28" edge="1">
          <mxGeometry width="50" height="50" relative="1" as="geometry">
            <mxPoint x="402.98430999999994" y="307.2" as="sourcePoint" />
            <mxPoint x="475.74" y="390.24" as="targetPoint" />
            <Array as="points">
              <mxPoint x="440" y="280" />
              <mxPoint x="440" y="330" />
            </Array>
          </mxGeometry>
        </mxCell>
        <mxCell id="WL6x4OXNJV538Ipcwp_X-31" value="" style="endArrow=classic;html=1;rounded=0;exitX=0.678;exitY=1.014;exitDx=0;exitDy=0;entryX=0.5;entryY=0;entryDx=0;entryDy=0;dashed=1;endFill=1;jumpSize=6;strokeWidth=0.5;exitPerimeter=0;" parent="1" source="iQXzC3IMoVuFOPlRli_T-9" target="WL6x4OXNJV538Ipcwp_X-28" edge="1">
          <mxGeometry width="50" height="50" relative="1" as="geometry">
            <mxPoint x="565" y="210" as="sourcePoint" />
            <mxPoint x="530" y="315" as="targetPoint" />
            <Array as="points">
              <mxPoint x="570" y="250" />
            </Array>
          </mxGeometry>
        </mxCell>
        <mxCell id="WL6x4OXNJV538Ipcwp_X-35" value="" style="endArrow=classic;html=1;rounded=0;exitX=0.5;exitY=0;exitDx=0;exitDy=0;dashed=1;endFill=1;jumpSize=6;strokeWidth=0.5;" parent="1" source="WL6x4OXNJV538Ipcwp_X-36" target="iQXzC3IMoVuFOPlRli_T-15" edge="1">
          <mxGeometry width="50" height="50" relative="1" as="geometry">
            <mxPoint x="517.55" y="179.92" as="sourcePoint" />
            <mxPoint x="533.5" y="189.26999999999998" as="targetPoint" />
          </mxGeometry>
        </mxCell>
        <mxCell id="WL6x4OXNJV538Ipcwp_X-36" value="&lt;font style=&quot;font-size: 5px&quot;&gt;&lt;span&gt;Create&amp;nbsp;&lt;/span&gt;&lt;font style=&quot;font-size: 5px&quot;&gt;Business info&lt;/font&gt;&lt;/font&gt;" style="ellipse;whiteSpace=wrap;html=1;fillColor=#dae8fc;strokeColor=#6c8ebf;" parent="1" vertex="1">
          <mxGeometry x="494.5" y="212.43" width="56" height="30" as="geometry" />
        </mxCell>
        <mxCell id="WL6x4OXNJV538Ipcwp_X-37" value="&lt;font style=&quot;font-size: 7px&quot;&gt;&amp;lt;&amp;lt;extend&amp;gt;&amp;gt;&lt;/font&gt;" style="text;html=1;strokeColor=none;fillColor=none;align=center;verticalAlign=middle;whiteSpace=wrap;rounded=0;rotation=0;" parent="1" vertex="1">
          <mxGeometry x="480.5" y="200" width="20" as="geometry" />
        </mxCell>
        <mxCell id="WL6x4OXNJV538Ipcwp_X-38" value="" style="endArrow=classic;html=1;rounded=0;exitX=0;exitY=0.5;exitDx=0;exitDy=0;dashed=1;endFill=1;jumpSize=6;strokeWidth=0.5;" parent="1" source="WL6x4OXNJV538Ipcwp_X-36" target="iQXzC3IMoVuFOPlRli_T-14" edge="1">
          <mxGeometry width="50" height="50" relative="1" as="geometry">
            <mxPoint x="509.25" y="200" as="sourcePoint" />
            <mxPoint x="498.4086264304609" y="188.85558064480972" as="targetPoint" />
          </mxGeometry>
        </mxCell>
        <mxCell id="WL6x4OXNJV538Ipcwp_X-39" value="&lt;font style=&quot;font-size: 7px&quot;&gt;&amp;lt;&amp;lt;include&amp;gt;&amp;gt;&lt;/font&gt;" style="text;html=1;strokeColor=none;fillColor=none;align=center;verticalAlign=middle;whiteSpace=wrap;rounded=0;rotation=0;" parent="1" vertex="1">
          <mxGeometry x="462" y="220" width="20" as="geometry" />
        </mxCell>
        <mxCell id="WL6x4OXNJV538Ipcwp_X-40" value="" style="endArrow=classic;html=1;rounded=0;fontSize=7;strokeWidth=1;jumpSize=6;" parent="1" target="iQXzC3IMoVuFOPlRli_T-14" edge="1">
          <mxGeometry width="50" height="50" relative="1" as="geometry">
            <mxPoint x="720" y="250" as="sourcePoint" />
            <mxPoint x="430" y="210" as="targetPoint" />
            <Array as="points">
              <mxPoint x="720" y="260" />
              <mxPoint x="416" y="260" />
            </Array>
          </mxGeometry>
        </mxCell>
        <mxCell id="WL6x4OXNJV538Ipcwp_X-41" value="&lt;font style=&quot;font-size: 7px&quot;&gt;Generate Contract&lt;/font&gt;" style="ellipse;whiteSpace=wrap;html=1;fillColor=#dae8fc;strokeColor=#6c8ebf;" parent="1" vertex="1">
          <mxGeometry x="540" y="320" width="70" height="30" as="geometry" />
        </mxCell>
        <mxCell id="WL6x4OXNJV538Ipcwp_X-42" value="" style="endArrow=classic;html=1;rounded=0;exitX=0.956;exitY=0.259;exitDx=0;exitDy=0;entryX=0.087;entryY=0.819;entryDx=0;entryDy=0;dashed=1;endFill=1;jumpSize=6;strokeWidth=0.5;exitPerimeter=0;entryPerimeter=0;" parent="1" source="WL6x4OXNJV538Ipcwp_X-28" target="WL6x4OXNJV538Ipcwp_X-41" edge="1">
          <mxGeometry width="50" height="50" relative="1" as="geometry">
            <mxPoint x="402.98431000000005" y="307.20000000000005" as="sourcePoint" />
            <mxPoint x="481.74" y="368.24" as="targetPoint" />
          </mxGeometry>
        </mxCell>
        <mxCell id="WL6x4OXNJV538Ipcwp_X-43" value="&lt;font style=&quot;font-size: 5px&quot;&gt;&amp;lt;&amp;lt;include&amp;gt;&amp;gt;&lt;/font&gt;" style="text;html=1;strokeColor=none;fillColor=none;align=center;verticalAlign=middle;whiteSpace=wrap;rounded=0;rotation=0;" parent="1" vertex="1">
          <mxGeometry x="535" y="360" width="20" as="geometry" />
        </mxCell>
        <mxCell id="WL6x4OXNJV538Ipcwp_X-44" value="" style="endArrow=classic;html=1;rounded=0;exitX=0.012;exitY=0.306;exitDx=0;exitDy=0;dashed=1;endFill=1;jumpSize=6;strokeWidth=0.5;entryX=0.922;entryY=0.735;entryDx=0;entryDy=0;entryPerimeter=0;exitPerimeter=0;" parent="1" source="WL6x4OXNJV538Ipcwp_X-41" target="WL6x4OXNJV538Ipcwp_X-16" edge="1">
          <mxGeometry width="50" height="50" relative="1" as="geometry">
            <mxPoint x="532.4200000000001" y="375.77" as="sourcePoint" />
            <mxPoint x="556.09" y="354.57" as="targetPoint" />
          </mxGeometry>
        </mxCell>
        <mxCell id="WL6x4OXNJV538Ipcwp_X-45" value="&lt;font style=&quot;font-size: 5px&quot;&gt;&amp;lt;&amp;lt;include&amp;gt;&amp;gt;&lt;/font&gt;" style="text;html=1;strokeColor=none;fillColor=none;align=center;verticalAlign=middle;whiteSpace=wrap;rounded=0;rotation=0;" parent="1" vertex="1">
          <mxGeometry x="533" y="316" width="20" as="geometry" />
        </mxCell>
        <mxCell id="WL6x4OXNJV538Ipcwp_X-46" value="" style="endArrow=classic;html=1;rounded=0;exitX=0.5;exitY=0;exitDx=0;exitDy=0;entryX=0.429;entryY=1.033;entryDx=0;entryDy=0;dashed=1;endFill=1;jumpSize=6;strokeWidth=0.5;entryPerimeter=0;" parent="1" source="WL6x4OXNJV538Ipcwp_X-41" target="WL6x4OXNJV538Ipcwp_X-47" edge="1">
          <mxGeometry width="50" height="50" relative="1" as="geometry">
            <mxPoint x="570" y="320" as="sourcePoint" />
            <mxPoint x="593.67" y="298.79999999999995" as="targetPoint" />
          </mxGeometry>
        </mxCell>
        <mxCell id="WL6x4OXNJV538Ipcwp_X-47" value="&lt;font style=&quot;font-size: 10px&quot;&gt;Update&amp;nbsp;&lt;/font&gt;" style="ellipse;whiteSpace=wrap;html=1;fillColor=#dae8fc;strokeColor=#6c8ebf;" parent="1" vertex="1">
          <mxGeometry x="572" y="267" width="70" height="30" as="geometry" />
        </mxCell>
        <mxCell id="WL6x4OXNJV538Ipcwp_X-48" value="&lt;font style=&quot;font-size: 5px&quot;&gt;&amp;lt;&amp;lt;include&amp;gt;&amp;gt;&lt;/font&gt;" style="text;html=1;strokeColor=none;fillColor=none;align=center;verticalAlign=middle;whiteSpace=wrap;rounded=0;rotation=0;" parent="1" vertex="1">
          <mxGeometry x="594" y="309" width="20" as="geometry" />
        </mxCell>
        <mxCell id="WL6x4OXNJV538Ipcwp_X-49" value="" style="endArrow=classic;html=1;rounded=0;exitX=0;exitY=0.5;exitDx=0;exitDy=0;entryX=1;entryY=0.5;entryDx=0;entryDy=0;dashed=1;endFill=1;jumpSize=6;strokeWidth=0.5;" parent="1" source="WL6x4OXNJV538Ipcwp_X-47" target="WL6x4OXNJV538Ipcwp_X-15" edge="1">
          <mxGeometry width="50" height="50" relative="1" as="geometry">
            <mxPoint x="585" y="330" as="sourcePoint" />
            <mxPoint x="610.03" y="299.98999999999995" as="targetPoint" />
          </mxGeometry>
        </mxCell>
        <mxCell id="WL6x4OXNJV538Ipcwp_X-50" value="&lt;font style=&quot;font-size: 7px&quot;&gt;&amp;lt;&amp;lt;include&amp;gt;&amp;gt;&lt;/font&gt;" style="text;html=1;strokeColor=none;fillColor=none;align=center;verticalAlign=middle;whiteSpace=wrap;rounded=0;rotation=0;" parent="1" vertex="1">
          <mxGeometry x="462" y="271" width="20" as="geometry" />
        </mxCell>
        <mxCell id="WL6x4OXNJV538Ipcwp_X-52" value="&lt;font style=&quot;font-size: 5px&quot;&gt;schedulling &amp;amp;personal info&lt;/font&gt;" style="ellipse;whiteSpace=wrap;html=1;fillColor=#dae8fc;strokeColor=#6c8ebf;" parent="1" vertex="1">
          <mxGeometry x="572" y="220" width="70" height="31" as="geometry" />
        </mxCell>
        <mxCell id="WL6x4OXNJV538Ipcwp_X-54" value="" style="endArrow=classic;html=1;rounded=0;entryX=0.665;entryY=0.975;entryDx=0;entryDy=0;dashed=1;endFill=1;jumpSize=6;strokeWidth=0.5;entryPerimeter=0;exitX=0.5;exitY=0;exitDx=0;exitDy=0;" parent="1" source="WL6x4OXNJV538Ipcwp_X-47" target="WL6x4OXNJV538Ipcwp_X-52" edge="1">
          <mxGeometry width="50" height="50" relative="1" as="geometry">
            <mxPoint x="625" y="260" as="sourcePoint" />
            <mxPoint x="650.0000000000001" y="229.99" as="targetPoint" />
            <Array as="points" />
          </mxGeometry>
        </mxCell>
        <mxCell id="WL6x4OXNJV538Ipcwp_X-55" value="&lt;font style=&quot;font-size: 5px&quot;&gt;&amp;lt;&amp;lt;include&amp;gt;&amp;gt;&lt;/font&gt;" style="text;html=1;strokeColor=none;fillColor=none;align=center;verticalAlign=middle;whiteSpace=wrap;rounded=0;rotation=0;" parent="1" vertex="1">
          <mxGeometry x="619" y="261" width="20" as="geometry" />
        </mxCell>
        <mxCell id="WL6x4OXNJV538Ipcwp_X-56" value="" style="endArrow=classic;html=1;rounded=0;entryX=1;entryY=1;entryDx=0;entryDy=0;dashed=1;endFill=1;jumpSize=6;strokeWidth=0.5;exitX=0.5;exitY=0;exitDx=0;exitDy=0;" parent="1" source="WL6x4OXNJV538Ipcwp_X-52" target="iQXzC3IMoVuFOPlRli_T-9" edge="1">
          <mxGeometry width="50" height="50" relative="1" as="geometry">
            <mxPoint x="582.13" y="221" as="sourcePoint" />
            <mxPoint x="580" y="190.002" as="targetPoint" />
            <Array as="points" />
          </mxGeometry>
        </mxCell>
        <mxCell id="WL6x4OXNJV538Ipcwp_X-57" value="&lt;font style=&quot;font-size: 5px&quot;&gt;&amp;lt;&amp;lt;include&amp;gt;&amp;gt;&lt;/font&gt;" style="text;html=1;strokeColor=none;fillColor=none;align=center;verticalAlign=middle;whiteSpace=wrap;rounded=0;rotation=0;" parent="1" vertex="1">
          <mxGeometry x="602" y="207" width="20" as="geometry" />
        </mxCell>
        <mxCell id="iQXzC3IMoVuFOPlRli_T-3" value="Company (Technical&amp;nbsp;&lt;br&gt;Tempraries)" style="shape=umlActor;verticalLabelPosition=bottom;verticalAlign=top;html=1;" parent="1" vertex="1">
          <mxGeometry x="711" y="177" width="20" height="40" as="geometry" />
        </mxCell>
        <mxCell id="WL6x4OXNJV538Ipcwp_X-58" value="&lt;font style=&quot;font-size: 8px&quot;&gt;Monthly Schedules&lt;/font&gt;" style="ellipse;whiteSpace=wrap;html=1;fillColor=#dae8fc;strokeColor=#6c8ebf;" parent="1" vertex="1">
          <mxGeometry x="542.25" y="365" width="67.6" height="32" as="geometry" />
        </mxCell>
        <mxCell id="WL6x4OXNJV538Ipcwp_X-61" value="&lt;font style=&quot;font-size: 10px&quot;&gt;Print&lt;/font&gt;" style="ellipse;whiteSpace=wrap;html=1;fillColor=#dae8fc;strokeColor=#6c8ebf;" parent="1" vertex="1">
          <mxGeometry x="338.25" y="404" width="70" height="30" as="geometry" />
        </mxCell>
        <mxCell id="WL6x4OXNJV538Ipcwp_X-66" value="" style="endArrow=classic;html=1;rounded=0;entryX=1;entryY=0.5;entryDx=0;entryDy=0;dashed=1;endFill=1;jumpSize=6;strokeWidth=0.5;" parent="1" source="WL6x4OXNJV538Ipcwp_X-58" target="WL6x4OXNJV538Ipcwp_X-28" edge="1">
          <mxGeometry width="50" height="50" relative="1" as="geometry">
            <mxPoint x="488.00000000000006" y="400" as="sourcePoint" />
            <mxPoint x="511.6699999999999" y="378.79999999999995" as="targetPoint" />
          </mxGeometry>
        </mxCell>
        <mxCell id="WL6x4OXNJV538Ipcwp_X-67" value="&lt;font style=&quot;font-size: 3px&quot;&gt;&amp;lt;&amp;lt;include&amp;gt;&amp;gt;&lt;/font&gt;" style="text;html=1;strokeColor=none;fillColor=none;align=center;verticalAlign=middle;whiteSpace=wrap;rounded=0;rotation=0;" parent="1" vertex="1">
          <mxGeometry x="520.5799999999999" y="380.23" width="20" as="geometry" />
        </mxCell>
        <mxCell id="WL6x4OXNJV538Ipcwp_X-68" value="&lt;font style=&quot;font-size: 5px&quot;&gt;&amp;lt;&amp;lt;include&amp;gt;&amp;gt;&lt;/font&gt;" style="text;html=1;strokeColor=none;fillColor=none;align=center;verticalAlign=middle;whiteSpace=wrap;rounded=0;rotation=0;" parent="1" vertex="1">
          <mxGeometry x="426" y="350" width="40" as="geometry" />
        </mxCell>
        <mxCell id="WL6x4OXNJV538Ipcwp_X-69" value="&lt;font style=&quot;font-size: 5px&quot;&gt;&amp;lt;&amp;lt;include&amp;gt;&amp;gt;&lt;/font&gt;" style="text;html=1;strokeColor=none;fillColor=none;align=center;verticalAlign=middle;whiteSpace=wrap;rounded=0;rotation=0;" parent="1" vertex="1">
          <mxGeometry x="446" y="323" width="40" as="geometry" />
        </mxCell>
        <mxCell id="WL6x4OXNJV538Ipcwp_X-72" value="" style="endArrow=classic;html=1;rounded=0;exitX=1;exitY=0.5;exitDx=0;exitDy=0;entryX=0.053;entryY=0.757;entryDx=0;entryDy=0;dashed=1;endFill=1;jumpSize=6;strokeWidth=0.5;entryPerimeter=0;" parent="1" source="WL6x4OXNJV538Ipcwp_X-61" target="WL6x4OXNJV538Ipcwp_X-58" edge="1">
          <mxGeometry width="50" height="50" relative="1" as="geometry">
            <mxPoint x="407.24431000000004" y="430" as="sourcePoint" />
            <mxPoint x="486" y="491.04" as="targetPoint" />
          </mxGeometry>
        </mxCell>
        <mxCell id="WL6x4OXNJV538Ipcwp_X-73" value="&lt;font style=&quot;font-size: 7px&quot;&gt;&amp;lt;&amp;lt;include&amp;gt;&amp;gt;&lt;/font&gt;" style="text;html=1;strokeColor=none;fillColor=none;align=center;verticalAlign=middle;whiteSpace=wrap;rounded=0;rotation=0;" parent="1" vertex="1">
          <mxGeometry x="482" y="406" width="40" as="geometry" />
        </mxCell>
        <mxCell id="WL6x4OXNJV538Ipcwp_X-74" value="&lt;font style=&quot;font-size: 10px&quot;&gt;Notification&lt;/font&gt;" style="ellipse;whiteSpace=wrap;html=1;fillColor=#dae8fc;strokeColor=#6c8ebf;" parent="1" vertex="1">
          <mxGeometry x="333.13" y="450" width="81.75" height="40" as="geometry" />
        </mxCell>
        <mxCell id="WL6x4OXNJV538Ipcwp_X-75" value="" style="endArrow=classic;html=1;rounded=0;entryX=1;entryY=1;entryDx=0;entryDy=0;dashed=1;endFill=1;jumpSize=6;strokeWidth=0.5;" parent="1" source="WL6x4OXNJV538Ipcwp_X-74" target="WL6x4OXNJV538Ipcwp_X-23" edge="1">
          <mxGeometry width="50" height="50" relative="1" as="geometry">
            <mxPoint x="413.92" y="471.78" as="sourcePoint" />
            <mxPoint x="550.5027999999999" y="450.004" as="targetPoint" />
            <Array as="points">
              <mxPoint x="430" y="400" />
            </Array>
          </mxGeometry>
        </mxCell>
        <mxCell id="WL6x4OXNJV538Ipcwp_X-76" value="&lt;font style=&quot;font-size: 9px&quot;&gt;&amp;lt;&amp;lt;include&amp;gt;&amp;gt;&lt;/font&gt;" style="text;html=1;strokeColor=none;fillColor=none;align=center;verticalAlign=middle;whiteSpace=wrap;rounded=0;rotation=0;" parent="1" vertex="1">
          <mxGeometry x="391" y="381" width="40" as="geometry" />
        </mxCell>
        <mxCell id="WL6x4OXNJV538Ipcwp_X-77" value="" style="endArrow=classic;html=1;rounded=0;entryX=0.5;entryY=1;entryDx=0;entryDy=0;dashed=1;endFill=1;jumpSize=6;strokeWidth=0.5;exitX=1;exitY=0.5;exitDx=0;exitDy=0;" parent="1" source="WL6x4OXNJV538Ipcwp_X-74" target="WL6x4OXNJV538Ipcwp_X-58" edge="1">
          <mxGeometry width="50" height="50" relative="1" as="geometry">
            <mxPoint x="398.86573806241745" y="461.3686269068197" as="sourcePoint" />
            <mxPoint x="419.3410067099153" y="374.19974034488473" as="targetPoint" />
            <Array as="points">
              <mxPoint x="575" y="470" />
            </Array>
          </mxGeometry>
        </mxCell>
        <mxCell id="WL6x4OXNJV538Ipcwp_X-78" value="&lt;font style=&quot;font-size: 9px&quot;&gt;&amp;lt;&amp;lt;include&amp;gt;&amp;gt;&lt;/font&gt;" style="text;html=1;strokeColor=none;fillColor=none;align=center;verticalAlign=middle;whiteSpace=wrap;rounded=0;rotation=0;" parent="1" vertex="1">
          <mxGeometry x="527.5" y="440" width="40" as="geometry" />
        </mxCell>
        <mxCell id="WL6x4OXNJV538Ipcwp_X-79" value="" style="endArrow=classic;html=1;rounded=0;fontSize=9;strokeWidth=1;jumpSize=6;entryX=0;entryY=0.5;entryDx=0;entryDy=0;" parent="1" target="WL6x4OXNJV538Ipcwp_X-74" edge="1">
          <mxGeometry width="50" height="50" relative="1" as="geometry">
            <mxPoint x="130" y="250" as="sourcePoint" />
            <mxPoint x="430" y="320" as="targetPoint" />
            <Array as="points">
              <mxPoint x="130" y="470" />
            </Array>
          </mxGeometry>
        </mxCell>
        <mxCell id="WL6x4OXNJV538Ipcwp_X-80" value="Employees" style="shape=umlActor;verticalLabelPosition=bottom;verticalAlign=top;html=1;" parent="1" vertex="1">
          <mxGeometry x="712" y="330" width="20" height="40" as="geometry" />
        </mxCell>
        <mxCell id="WL6x4OXNJV538Ipcwp_X-81" value="" style="endArrow=classic;html=1;rounded=0;fontSize=4;strokeWidth=1;jumpSize=6;entryX=1;entryY=0.5;entryDx=0;entryDy=0;" parent="1" target="iQXzC3IMoVuFOPlRli_T-9" edge="1">
          <mxGeometry width="50" height="50" relative="1" as="geometry">
            <mxPoint x="700" y="210" as="sourcePoint" />
            <mxPoint x="470" y="280" as="targetPoint" />
            <Array as="points">
              <mxPoint x="660" y="210" />
              <mxPoint x="660" y="185" />
            </Array>
          </mxGeometry>
        </mxCell>
        <mxCell id="WL6x4OXNJV538Ipcwp_X-83" value="" style="endArrow=classic;html=1;rounded=0;fontSize=4;strokeWidth=1;jumpSize=6;" parent="1" target="WL6x4OXNJV538Ipcwp_X-15" edge="1">
          <mxGeometry width="50" height="50" relative="1" as="geometry">
            <mxPoint x="720" y="170" as="sourcePoint" />
            <mxPoint x="470" y="210" as="targetPoint" />
            <Array as="points">
              <mxPoint x="720" y="130" />
              <mxPoint x="290" y="130" />
              <mxPoint x="290" y="280" />
            </Array>
          </mxGeometry>
        </mxCell>
        <mxCell id="WL6x4OXNJV538Ipcwp_X-84" value="" style="endArrow=classic;html=1;rounded=0;fontSize=4;strokeWidth=1;jumpSize=6;entryX=0.5;entryY=1;entryDx=0;entryDy=0;" parent="1" target="WL6x4OXNJV538Ipcwp_X-23" edge="1">
          <mxGeometry width="50" height="50" relative="1" as="geometry">
            <mxPoint x="720" y="390" as="sourcePoint" />
            <mxPoint x="470" y="350" as="targetPoint" />
            <Array as="points">
              <mxPoint x="720" y="400" />
              <mxPoint x="373" y="400" />
            </Array>
          </mxGeometry>
        </mxCell>
        <mxCell id="WL6x4OXNJV538Ipcwp_X-85" value="" style="endArrow=classic;html=1;rounded=0;fontSize=4;strokeWidth=1;jumpSize=6;" parent="1" edge="1">
          <mxGeometry width="50" height="50" relative="1" as="geometry">
            <mxPoint x="720" y="400" as="sourcePoint" />
            <mxPoint x="410" y="419" as="targetPoint" />
            <Array as="points">
              <mxPoint x="720" y="419" />
            </Array>
          </mxGeometry>
        </mxCell>
        <mxCell id="WL6x4OXNJV538Ipcwp_X-87" value="Tecnnical Tempraries" style="text;html=1;strokeColor=none;fillColor=none;align=center;verticalAlign=middle;whiteSpace=wrap;rounded=0;fontSize=11;fontColor=#666666;fontStyle=1" parent="1" vertex="1">
          <mxGeometry x="389.5" y="87" width="113" height="33" as="geometry" />
        </mxCell>
      </root>
    </mxGraphModel>
  </diagram>
</mxfile>
